<svg id="Group_1" data-name="Group 1" xmlns="http://www.w3.org/2000/svg" xmlns:xlink="http://www.w3.org/1999/xlink" viewBox="0 0 197 60.17"><defs><style>.cls-1{fill:#2a41aa;}.cls-2{fill:#83858c;}.cls-3{isolation:isolate;}.cls-4{fill:#fff;}.cls-5{fill:url(#linear-gradient);}.cls-6{fill:url(#linear-gradient-2);}.cls-7{fill:#b2d235;}.cls-8{fill:#00b3b5;}.cls-9{fill:#006c6e;}.cls-10{fill:url(#linear-gradient-3);}.cls-11{fill:url(#linear-gradient-4);}.cls-12{fill:url(#linear-gradient-5);}.cls-13{fill:url(#linear-gradient-6);}.cls-14{fill:url(#linear-gradient-7);}.cls-15{fill:url(#linear-gradient-8);}.cls-16{fill:url(#linear-gradient-9);}.cls-17{fill:url(#linear-gradient-10);}.cls-18{fill:url(#linear-gradient-11);}.cls-19{fill:url(#linear-gradient-12);}.cls-20{fill:url(#linear-gradient-13);}.cls-21{fill:url(#linear-gradient-14);}.cls-22{fill:url(#linear-gradient-15);}.cls-23{fill:url(#linear-gradient-16);}.cls-24{fill:url(#linear-gradient-17);}.cls-25{fill:url(#linear-gradient-18);}</style><linearGradient id="linear-gradient" x1="30.59" y1="676.62" x2="34.68" y2="668.12" gradientTransform="matrix(1, 0, 0, -1, 0, 704.49)" gradientUnits="userSpaceOnUse"><stop offset="0" stop-color="#2a41aa"/><stop offset="1" stop-color="#506acc"/></linearGradient><linearGradient id="linear-gradient-2" x1="26.48" y1="664.05" x2="28.63" y2="676.98" xlink:href="#linear-gradient"/><linearGradient id="linear-gradient-3" x1="-1513.47" y1="585.74" x2="-1515.68" y2="583.31" gradientTransform="translate(5293.14 -1997.17) scale(3.47)" gradientUnits="userSpaceOnUse"><stop offset="0" stop-color="#8cc63f"/><stop offset="1" stop-color="#29abe2"/></linearGradient><linearGradient id="linear-gradient-4" x1="35.44" y1="663.22" x2="40.09" y2="674.22" xlink:href="#linear-gradient"/><linearGradient id="linear-gradient-5" x1="42.61" y1="676.17" x2="41.84" y2="679.15" gradientTransform="matrix(1, 0, 0, -1, 0, 704.49)" gradientUnits="userSpaceOnUse"><stop offset="0" stop-color="#83858c"/><stop offset="1" stop-color="#b1b3ba"/></linearGradient><linearGradient id="linear-gradient-6" x1="43.26" y1="676.33" x2="42.49" y2="679.31" xlink:href="#linear-gradient-5"/><linearGradient id="linear-gradient-7" x1="41.86" y1="675.98" x2="41.1" y2="678.95" xlink:href="#linear-gradient-5"/><linearGradient id="linear-gradient-8" x1="40.77" y1="675.7" x2="40.01" y2="678.67" xlink:href="#linear-gradient-5"/><linearGradient id="linear-gradient-9" x1="60.39" y1="665.27" x2="34.76" y2="691.59" xlink:href="#linear-gradient"/><linearGradient id="linear-gradient-10" x1="38.71" y1="644.15" x2="13.07" y2="670.47" xlink:href="#linear-gradient"/><linearGradient id="linear-gradient-11" x1="25.93" y1="697.42" x2="16.57" y2="703.29" xlink:href="#linear-gradient-5"/><linearGradient id="linear-gradient-12" x1="20.6" y1="688.92" x2="11.24" y2="694.79" xlink:href="#linear-gradient-5"/><linearGradient id="linear-gradient-13" x1="14.12" y1="678.59" x2="4.76" y2="684.46" xlink:href="#linear-gradient-5"/><linearGradient id="linear-gradient-14" x1="23.81" y1="694.05" x2="14.45" y2="699.92" xlink:href="#linear-gradient-5"/><linearGradient id="linear-gradient-15" x1="21.32" y1="690.06" x2="11.96" y2="695.94" xlink:href="#linear-gradient-5"/><linearGradient id="linear-gradient-16" x1="14.88" y1="679.8" x2="5.52" y2="685.67" xlink:href="#linear-gradient-5"/><linearGradient id="linear-gradient-17" x1="19.26" y1="686.79" x2="9.9" y2="692.66" xlink:href="#linear-gradient-5"/><linearGradient id="linear-gradient-18" x1="21.47" y1="664.73" x2="21.21" y2="685.75" xlink:href="#linear-gradient"/></defs><title>Artboard 4</title><path class="cls-1" d="M64.4,19.5V3.6h2.8V19.5Z"/><path class="cls-1" d="M85.4,3.6V19.5l-2.8-2.2L72.4,9.4V19.5H69.6V3.7l2.8,2.2,10.2,7.9V3.6Z"/><path class="cls-1" d="M90.3,11.6a5.12,5.12,0,0,0,5.1,5.1h7.9v2.8H95.4a7.9,7.9,0,0,1,0-15.8h7.9V6.5H95.4A5.12,5.12,0,0,0,90.3,11.6Z"/><path class="cls-1" d="M108.5,7.9V9.4h10.2v2.8H108.5v3a1.54,1.54,0,0,0,1.5,1.5h11.5v2.8H109.9a4.27,4.27,0,0,1-4.3-4.3V7.9a4.27,4.27,0,0,1,4.3-4.3h11.6V6.4H109.9A1.52,1.52,0,0,0,108.5,7.9Z"/><path class="cls-1" d="M138.1,7.9a4.31,4.31,0,0,1-2.5,3.9,2.66,2.66,0,0,1-1.2.3h-7.7v7.3h-2.8V3.6h10a4,4,0,0,1,3,1.3A4.51,4.51,0,0,1,138.1,7.9Zm-2.8,0a1.57,1.57,0,0,0-.4-1,1.33,1.33,0,0,0-1-.4h-7.2V9.4h7.2a1.27,1.27,0,0,0,.6-.1A1.6,1.6,0,0,0,135.3,7.9Z"/><path class="cls-1" d="M156.3,3.6V6.4h-6.5V19.5H147V6.5h-6.5V3.7h15.8Z"/><path class="cls-1" d="M158.6,19.5V3.6h2.8V19.5Z"/><path class="cls-1" d="M179,11.6a7.9,7.9,0,1,1-7.9-7.9A7.92,7.92,0,0,1,179,11.6Zm-2.8,0a5.1,5.1,0,1,0-5.1,5.1A5.12,5.12,0,0,0,176.2,11.6Z"/><path class="cls-1" d="M196.6,3.6V19.5l-2.8-2.2L183.6,9.4V19.5h-2.8V3.7l2.8,2.2,10.2,7.9V3.6Z"/><path class="cls-1" d="M103.1,23.6v1.7H99.2v7.8H97.5V25.3H93.6V23.6Z"/><path class="cls-1" d="M106.2,26.2v.9h6.1v1.7h-6.1v1.8a.9.9,0,0,0,.9.9h7v1.7h-7a2.65,2.65,0,0,1-2.6-2.6V26.2a2.58,2.58,0,0,1,2.6-2.6h7v1.7h-7A.9.9,0,0,0,106.2,26.2Z"/><path class="cls-1" d="M116.2,28.4a3.12,3.12,0,0,0,3.1,3.1h4.8v1.7h-4.8a4.8,4.8,0,1,1,0-9.6h4.8v1.7h-4.8A3.12,3.12,0,0,0,116.2,28.4Z"/><path class="cls-1" d="M134.9,23.6v9.5h-1.7V28.7h-6.1v4.4h-1.7V23.6h1.7v3.5h6.1V23.6Z"/><path class="cls-1" d="M145.8,23.6v9.5l-1.7-1.3L138,27.1v6h-1.7V23.6l1.7,1.3,6.1,4.7V23.5h1.7Z"/><path class="cls-1" d="M156.4,28.4a4.8,4.8,0,0,1-4.8,4.8,4.74,4.74,0,0,1-4.8-4.8,4.8,4.8,0,0,1,4.8-4.8A4.74,4.74,0,0,1,156.4,28.4Zm-1.7,0a3.1,3.1,0,1,0-3.1,3.1A3.12,3.12,0,0,0,154.7,28.4Z"/><path class="cls-1" d="M165.3,31.4v1.7h-4.8a2.77,2.77,0,0,1-1.3-.3,3.16,3.16,0,0,1-1.4-1.4,3.08,3.08,0,0,1-.3-1.3V23.6h1.7v6.7a1.49,1.49,0,0,0,1.2,1.2h4.9Z"/><path class="cls-1" d="M175.8,33.1h-1.9l-.9-1.7-2.1-4.1-2.1,4.1-.9,1.7H166l.9-1.7,4-7.8,4,7.8Z"/><path class="cls-1" d="M186.2,30.1a3,3,0,0,1-3,3h-6.5V23.6h6a2.65,2.65,0,0,1,2.6,2.6,3.26,3.26,0,0,1-.4,1.4A2.86,2.86,0,0,1,186.2,30.1Zm-7.8-3h4.3a.9.9,0,0,0,0-1.8h-4.3Zm6.1,3a1.32,1.32,0,0,0-1.3-1.3h-4.8v2.7h4.8A1.49,1.49,0,0,0,184.5,30.1Z"/><path class="cls-1" d="M194.5,26.2h0a.9.9,0,0,0-.9-.9h-3.9a.9.9,0,0,0-.9.9v.1a.9.9,0,0,0,.9.9h3.4a2.87,2.87,0,0,1,2.2,1l.1.1a3.16,3.16,0,0,1,.7,1.9,3,3,0,0,1-3,3h-3a3,3,0,0,1-3-3h1.7a1.32,1.32,0,0,0,1.3,1.3h3a1.3,1.3,0,0,0,0-2.6h-3.4a2.87,2.87,0,0,1-1.8-.7,1.38,1.38,0,0,1-.3-.4,2.46,2.46,0,0,1-.5-1.5v-.1a2.58,2.58,0,0,1,2.6-2.6h3.9a2.65,2.65,0,0,1,2.6,2.6v.1h-1.7Z"/><rect class="cls-2" x="64.7" y="39.2" width="132.3" height="14.8"/><g class="cls-3"><path class="cls-4" d="M73.34,49.28v-7.2h1v7.2Z"/><path class="cls-4" d="M75.87,49.28V44.07h.8v.74a1.87,1.87,0,0,1,1.66-.86,2.17,2.17,0,0,1,.87.17,1.36,1.36,0,0,1,.59.44,1.7,1.7,0,0,1,.27.65,5,5,0,0,1,0,.86v3.21h-.88V46.11a2.4,2.4,0,0,0-.1-.81.86.86,0,0,0-.37-.43,1.17,1.17,0,0,0-.62-.16,1.43,1.43,0,0,0-1,.36,1.77,1.77,0,0,0-.41,1.36v2.85Z"/><path class="cls-4" d="M81.11,47.73l.88-.14a1.22,1.22,0,0,0,.41.81,1.43,1.43,0,0,0,.94.28,1.38,1.38,0,0,0,.9-.25.74.74,0,0,0,.29-.58.54.54,0,0,0-.26-.47,3.92,3.92,0,0,0-.9-.3A8.15,8.15,0,0,1,82,46.65a1.29,1.29,0,0,1-.76-1.2,1.34,1.34,0,0,1,.16-.65,1.42,1.42,0,0,1,.43-.49,1.83,1.83,0,0,1,.56-.26,2.67,2.67,0,0,1,.76-.11,3,3,0,0,1,1.08.18,1.47,1.47,0,0,1,.69.48,1.87,1.87,0,0,1,.3.81l-.86.12A1,1,0,0,0,84,44.9a1.25,1.25,0,0,0-.8-.23,1.45,1.45,0,0,0-.87.2.59.59,0,0,0-.26.47.49.49,0,0,0,.11.31.77.77,0,0,0,.34.24l.78.23a10.87,10.87,0,0,1,1.31.41,1.33,1.33,0,0,1,.58.46,1.29,1.29,0,0,1,.21.76,1.48,1.48,0,0,1-.26.83,1.67,1.67,0,0,1-.74.6,2.71,2.71,0,0,1-1.1.21A2.45,2.45,0,0,1,81.79,49,2,2,0,0,1,81.11,47.73Z"/><path class="cls-4" d="M86.49,51.28V44.07h.81v.68a2,2,0,0,1,.64-.6,1.76,1.76,0,0,1,.87-.2,2.07,2.07,0,0,1,1.18.34,2.11,2.11,0,0,1,.77,1A3.54,3.54,0,0,1,91,46.64a3.49,3.49,0,0,1-.29,1.44,2.19,2.19,0,0,1-2,1.32,1.67,1.67,0,0,1-.79-.19,1.82,1.82,0,0,1-.58-.47v2.54Zm.8-4.58a2.27,2.27,0,0,0,.41,1.49,1.25,1.25,0,0,0,1,.48,1.28,1.28,0,0,0,1-.5,2.37,2.37,0,0,0,.42-1.54,2.3,2.3,0,0,0-.41-1.49,1.23,1.23,0,0,0-1-.5,1.27,1.27,0,0,0-1,.53A2.36,2.36,0,0,0,87.29,46.7Z"/><path class="cls-4" d="M92.09,43.1v-1H93v1Zm0,6.18V44.07H93v5.22Z"/><path class="cls-4" d="M94.31,49.28V44.07h.8v.79a2.17,2.17,0,0,1,.56-.73,1,1,0,0,1,.57-.18,1.73,1.73,0,0,1,.91.29l-.3.82a1.26,1.26,0,0,0-.65-.19.84.84,0,0,0-.52.17,1,1,0,0,0-.33.48,3.43,3.43,0,0,0-.15,1v2.73Z"/><path class="cls-4" d="M97.67,43.1v-1h.88v1Zm0,6.18V44.07h.88v5.22Z"/><path class="cls-4" d="M99.91,49.28V44.07h.8v.74a1.88,1.88,0,0,1,1.66-.86,2.17,2.17,0,0,1,.87.17,1.36,1.36,0,0,1,.59.44,1.72,1.72,0,0,1,.28.65,5.13,5.13,0,0,1,0,.86v3.21h-.88V46.11a2.37,2.37,0,0,0-.1-.81.85.85,0,0,0-.37-.43,1.17,1.17,0,0,0-.62-.16,1.43,1.43,0,0,0-1,.36,1.77,1.77,0,0,0-.41,1.36v2.85Z"/><path class="cls-4" d="M105.34,49.72l.86.13a.82.82,0,0,0,.3.58,1.47,1.47,0,0,0,.9.25,1.58,1.58,0,0,0,.95-.25,1.21,1.21,0,0,0,.45-.69,5.76,5.76,0,0,0,.06-1.13,1.82,1.82,0,0,1-1.44.68,2,2,0,0,1-1.67-.78,3,3,0,0,1-.59-1.86,3.46,3.46,0,0,1,.27-1.38,2.16,2.16,0,0,1,.78-1,2.12,2.12,0,0,1,1.21-.34,1.87,1.87,0,0,1,1.52.75v-.63h.82v4.51a4.27,4.27,0,0,1-.25,1.73,1.81,1.81,0,0,1-.79.8,2.73,2.73,0,0,1-1.32.29,2.49,2.49,0,0,1-1.51-.42A1.42,1.42,0,0,1,105.34,49.72Zm.73-3.13a2.27,2.27,0,0,0,.41,1.5,1.3,1.3,0,0,0,1,.47,1.31,1.31,0,0,0,1-.47,2.19,2.19,0,0,0,.41-1.47,2.14,2.14,0,0,0-.42-1.44,1.31,1.31,0,0,0-1-.49,1.28,1.28,0,0,0-1,.48A2.13,2.13,0,0,0,106.07,46.58Z"/><path class="cls-4" d="M114.17,49.28v-7.2h1v7.2Z"/><path class="cls-4" d="M116.69,49.28V44.07h.8v.74a1.87,1.87,0,0,1,1.66-.86,2.17,2.17,0,0,1,.87.17,1.36,1.36,0,0,1,.59.44,1.7,1.7,0,0,1,.27.65,5,5,0,0,1,0,.86v3.21H120V46.11a2.4,2.4,0,0,0-.1-.81.86.86,0,0,0-.37-.43,1.17,1.17,0,0,0-.62-.16,1.43,1.43,0,0,0-1,.36,1.77,1.77,0,0,0-.41,1.36v2.85Z"/><path class="cls-4" d="M122.28,49.28V44.07h.8v.74a1.88,1.88,0,0,1,1.66-.86,2.17,2.17,0,0,1,.87.17,1.36,1.36,0,0,1,.59.44,1.72,1.72,0,0,1,.28.65,5.13,5.13,0,0,1,0,.86v3.21h-.88V46.11a2.37,2.37,0,0,0-.1-.81.85.85,0,0,0-.37-.43,1.17,1.17,0,0,0-.62-.16,1.43,1.43,0,0,0-1,.36,1.77,1.77,0,0,0-.41,1.36v2.85Z"/><path class="cls-4" d="M127.55,46.67a2.69,2.69,0,0,1,.81-2.15,2.42,2.42,0,0,1,1.64-.58,2.34,2.34,0,0,1,1.76.71,2.68,2.68,0,0,1,.68,1.95,3.44,3.44,0,0,1-.3,1.58,2.14,2.14,0,0,1-.88.9,2.56,2.56,0,0,1-1.26.32,2.34,2.34,0,0,1-1.77-.7A2.8,2.8,0,0,1,127.55,46.67Zm.91,0a2.23,2.23,0,0,0,.44,1.5,1.46,1.46,0,0,0,2.2,0,2.27,2.27,0,0,0,.44-1.53,2.16,2.16,0,0,0-.44-1.47,1.46,1.46,0,0,0-2.19,0A2.21,2.21,0,0,0,128.46,46.67Z"/><path class="cls-4" d="M134.92,49.28l-2-5.22h.93L135,47.19c.12.34.23.69.33,1.05q.12-.41.33-1l1.16-3.18h.91l-2,5.22Z"/><path class="cls-4" d="M141.91,48.64a3.31,3.31,0,0,1-.95.59,2.74,2.74,0,0,1-1,.17,1.9,1.9,0,0,1-1.32-.42,1.39,1.39,0,0,1-.46-1.07,1.42,1.42,0,0,1,.17-.7,1.44,1.44,0,0,1,.46-.51,2.17,2.17,0,0,1,.64-.29,6.2,6.2,0,0,1,.79-.13,8.18,8.18,0,0,0,1.58-.3c0-.12,0-.2,0-.23a1,1,0,0,0-.25-.76,1.48,1.48,0,0,0-1-.3,1.56,1.56,0,0,0-.92.22,1.33,1.33,0,0,0-.44.77l-.86-.12a2.14,2.14,0,0,1,.39-.9,1.71,1.71,0,0,1,.78-.53,3.48,3.48,0,0,1,1.18-.18,3.14,3.14,0,0,1,1.09.16,1.44,1.44,0,0,1,.61.4,1.39,1.39,0,0,1,.27.6,4.87,4.87,0,0,1,0,.82V47.1a12.42,12.42,0,0,0,.06,1.56,2,2,0,0,0,.22.63h-.92A1.85,1.85,0,0,1,141.91,48.64Zm-.07-2a6.48,6.48,0,0,1-1.44.33,3.35,3.35,0,0,0-.77.18.76.76,0,0,0-.47.71.75.75,0,0,0,.27.59,1.15,1.15,0,0,0,.78.24,1.83,1.83,0,0,0,.91-.22,1.38,1.38,0,0,0,.58-.61,2.12,2.12,0,0,0,.14-.88Z"/><path class="cls-4" d="M146,48.49l.13.78a3.24,3.24,0,0,1-.67.08,1.51,1.51,0,0,1-.75-.15.85.85,0,0,1-.37-.4,3.2,3.2,0,0,1-.11-1v-3h-.65v-.69h.65V42.77l.88-.53v1.82H146v.69h-.89V47.8a1.54,1.54,0,0,0,0,.49.37.37,0,0,0,.15.17.58.58,0,0,0,.3.06Z"/><path class="cls-4" d="M146.9,43.1v-1h.88v1Zm0,6.18V44.07h.88v5.22Z"/><path class="cls-4" d="M148.8,46.67a2.69,2.69,0,0,1,.81-2.15,2.42,2.42,0,0,1,1.64-.58,2.34,2.34,0,0,1,1.76.71,2.68,2.68,0,0,1,.68,1.95,3.44,3.44,0,0,1-.3,1.58,2.14,2.14,0,0,1-.88.9,2.56,2.56,0,0,1-1.26.32,2.34,2.34,0,0,1-1.77-.7A2.8,2.8,0,0,1,148.8,46.67Zm.91,0a2.23,2.23,0,0,0,.44,1.5,1.46,1.46,0,0,0,2.2,0,2.27,2.27,0,0,0,.44-1.53,2.16,2.16,0,0,0-.44-1.47,1.46,1.46,0,0,0-2.19,0A2.21,2.21,0,0,0,149.71,46.67Z"/><path class="cls-4" d="M154.72,49.28V44.07h.8v.74a1.87,1.87,0,0,1,1.66-.86,2.17,2.17,0,0,1,.87.17,1.36,1.36,0,0,1,.59.44,1.7,1.7,0,0,1,.27.65,5,5,0,0,1,0,.86v3.21h-.88V46.11a2.4,2.4,0,0,0-.1-.81.86.86,0,0,0-.37-.43,1.17,1.17,0,0,0-.62-.16,1.43,1.43,0,0,0-1,.36,1.77,1.77,0,0,0-.41,1.36v2.85Z"/><path class="cls-4" d="M163.39,49.28v-7.2h1v7.2Z"/><path class="cls-4" d="M165.91,49.28V44.07h.8v.74a1.87,1.87,0,0,1,1.66-.86,2.17,2.17,0,0,1,.87.17,1.36,1.36,0,0,1,.59.44,1.7,1.7,0,0,1,.27.65,5,5,0,0,1,0,.86v3.21h-.88V46.11a2.4,2.4,0,0,0-.1-.81.86.86,0,0,0-.37-.43,1.17,1.17,0,0,0-.62-.16,1.43,1.43,0,0,0-1,.36,1.77,1.77,0,0,0-.41,1.36v2.85Z"/><path class="cls-4" d="M171.15,47.73l.87-.14a1.22,1.22,0,0,0,.41.81,1.43,1.43,0,0,0,.94.28,1.38,1.38,0,0,0,.9-.25.74.74,0,0,0,.29-.58.54.54,0,0,0-.26-.47,3.9,3.9,0,0,0-.9-.3,8.13,8.13,0,0,1-1.35-.42,1.3,1.3,0,0,1-.57-.5,1.32,1.32,0,0,1-.19-.7,1.34,1.34,0,0,1,.16-.65,1.43,1.43,0,0,1,.43-.49,1.85,1.85,0,0,1,.56-.26,2.68,2.68,0,0,1,.76-.11,3,3,0,0,1,1.08.18,1.47,1.47,0,0,1,.69.48,1.87,1.87,0,0,1,.3.81l-.86.12a1,1,0,0,0-.34-.63,1.25,1.25,0,0,0-.8-.23,1.45,1.45,0,0,0-.87.2.59.59,0,0,0-.26.47.49.49,0,0,0,.11.31.78.78,0,0,0,.34.24l.78.23a10.84,10.84,0,0,1,1.31.41,1.33,1.33,0,0,1,.58.46,1.3,1.3,0,0,1,.21.76,1.48,1.48,0,0,1-.26.83,1.67,1.67,0,0,1-.74.6,2.71,2.71,0,0,1-1.1.21,2.45,2.45,0,0,1-1.55-.42A2,2,0,0,1,171.15,47.73Z"/><path class="cls-4" d="M176.54,43.1v-1h.88v1Zm0,6.18V44.07h.88v5.22Z"/><path class="cls-4" d="M182.15,49.28v-.66a1.62,1.62,0,0,1-1.46.78,2,2,0,0,1-1.15-.34,2.26,2.26,0,0,1-.81-1,3.31,3.31,0,0,1-.29-1.42,3.7,3.7,0,0,1,.26-1.42,2.06,2.06,0,0,1,.78-1,2.09,2.09,0,0,1,1.16-.34,1.74,1.74,0,0,1,.84.2,1.76,1.76,0,0,1,.6.52V42.08H183v7.2Zm-2.79-2.6a2.26,2.26,0,0,0,.42,1.5,1.27,1.27,0,0,0,1,.5,1.25,1.25,0,0,0,1-.47,2.19,2.19,0,0,0,.41-1.45,2.46,2.46,0,0,0-.41-1.57,1.27,1.27,0,0,0-1-.5,1.22,1.22,0,0,0-1,.48A2.37,2.37,0,0,0,179.36,46.68Z"/><path class="cls-4" d="M187.93,47.6l.91.11A2.23,2.23,0,0,1,188,49a2.71,2.71,0,0,1-3.31-.26,2.75,2.75,0,0,1-.67-2,2.88,2.88,0,0,1,.68-2,2.3,2.3,0,0,1,1.76-.73,2.23,2.23,0,0,1,1.71.71,2.83,2.83,0,0,1,.66,2c0,.05,0,.13,0,.24H185a2,2,0,0,0,.49,1.32,1.44,1.44,0,0,0,1.09.46,1.35,1.35,0,0,0,.83-.25A1.7,1.7,0,0,0,187.93,47.6ZM185,46.17h2.91a1.77,1.77,0,0,0-.33-1,1.36,1.36,0,0,0-1.1-.51,1.41,1.41,0,0,0-1,.41A1.62,1.62,0,0,0,185,46.17Z"/></g><path id="Path_1" data-name="Path 1" class="cls-5" d="M30.1,25.3V34l6.1,7.5V32.4Z"/><path id="Path_2" data-name="Path 2" class="cls-6" d="M30.1,25.3h-5V41.5h5.1V34h0l-.1-8.7Z"/><rect id="Rectangle_1" data-name="Rectangle 1" class="cls-7" x="40.4" y="24.7" width="1.3" height="1.3"/><rect id="Rectangle_2" data-name="Rectangle 2" class="cls-8" x="41.7" y="23.7" width="1" height="1"/><rect id="Rectangle_3" data-name="Rectangle 3" class="cls-9" x="40.9" y="22.9" width="0.7" height="0.7"/><rect id="Rectangle_4" data-name="Rectangle 4" class="cls-10" x="39.6" y="26.7" width="1.7" height="1.7"/><path id="Path_3" data-name="Path 3" class="cls-11" d="M39.6,29.8V28.3H38V26.6h1.6V25.3H36.2v7.2h0v9.1h5.1V29.9H39.6Z"/><g id="Rectangle_12" data-name="Rectangle 12"><rect class="cls-12" x="40.9" y="22.9" width="0.8" height="0.7"/></g><g id="Rectangle_11" data-name="Rectangle 11"><rect class="cls-13" x="41.7" y="23.7" width="1.1" height="1.1"/></g><g id="Rectangle_13" data-name="Rectangle 13"><rect class="cls-14" x="40.4" y="24.7" width="1.3" height="1.3"/></g><g id="Rectangle_4-2" data-name="Rectangle 4-2"><rect class="cls-15" x="39.6" y="26.7" width="1.7" height="1.7"/></g><path id="Path_1-2" data-name="Path 1-2" class="cls-16" d="M51.7,8.9A28.3,28.3,0,0,0,31.2,0V12.1a17,17,0,0,1,12.3,5.3,18.82,18.82,0,0,1,3.4,20.7l4.8,13.6A31.26,31.26,0,0,0,51.7,8.9Z"/><path id="Path_2-2" data-name="Path 2-2" class="cls-17" d="M17.4,43.5a16.79,16.79,0,0,1-5.3-12.3H0A28.25,28.25,0,0,0,8.9,51.7a31.26,31.26,0,0,0,42.8,0L38.1,46.9A18.82,18.82,0,0,1,17.4,43.5Z"/><rect id="Rectangle_3-2" data-name="Rectangle 3-2" class="cls-18" x="17.4" y="0.1" width="8.7" height="8.7"/><rect id="Rectangle_5" data-name="Rectangle 5" class="cls-19" x="2.9" y="3.5" width="5.2" height="5.2"/><rect id="Rectangle_6" data-name="Rectangle 6" class="cls-20" x="2.9" y="17.9" width="5.2" height="5.2"/><rect id="Rectangle_7" data-name="Rectangle 7" class="cls-21" x="8.2" width="3.5" height="3.5"/><rect id="Rectangle_8" data-name="Rectangle 8" class="cls-22" y="0.5" width="3" height="3"/><rect id="Rectangle_9" data-name="Rectangle 9" class="cls-23" y="14.8" width="3" height="3"/><rect id="Rectangle_10" data-name="Rectangle 10" class="cls-24" x="8.2" y="9.2" width="8.4" height="8.4"/><path id="Path_37" data-name="Path 37" class="cls-25" d="M23.6,41.4H19.1v-23h4.5Z"/></svg>